<?xml version="1.0" encoding="UTF-8"?>
<svg id="Layer_1" data-name="Layer 1" xmlns="http://www.w3.org/2000/svg" viewBox="0 0 1500 500">
  <g>
    <path d="M757.6,114.14h55.3c7.67,0,14.34,1.15,20.02,3.42,5.68,2.28,10.32,5.19,13.93,8.72,3.62,3.54,6.31,7.44,8.08,11.7,1.77,4.27,2.66,8.46,2.66,12.58,0,4.71-1.03,9.16-3.09,13.35-2.06,4.2-4.82,7.87-8.28,11.03-3.46,3.17-7.47,5.74-12.03,7.73-4.56,1.99-9.42,2.98-14.57,2.98v.88c3.24.15,7.5.66,12.8,1.54,5.3.88,10.45,2.65,15.45,5.3,5,2.65,9.34,6.48,13.02,11.48,3.67,5,5.52,11.7,5.52,20.08,0,5.3-.92,10.56-2.77,15.78-1.85,5.23-4.84,9.9-8.97,14.02-4.14,4.12-9.61,7.47-16.4,10.04-6.8,2.58-15.15,3.86-25.04,3.86h-55.62V114.14ZM804.17,181.68c4.42,0,8.57-.74,12.47-2.21,3.9-1.47,7.36-3.53,10.37-6.18,3.01-2.65,5.37-5.81,7.06-9.49,1.69-3.67,2.54-7.65,2.54-11.92,0-3.39-.59-6.77-1.77-10.16-1.18-3.38-3.06-6.4-5.63-9.04-2.58-2.65-5.88-4.78-9.93-6.41-4.05-1.61-8.94-2.42-14.68-2.42h-26.93v57.83h26.49ZM809.8,258.93c4.73,0,9.19-.7,13.4-2.1,4.21-1.4,7.86-3.5,10.96-6.29,3.1-2.79,5.58-6.18,7.42-10.15,1.84-3.97,2.77-8.53,2.77-13.69,0-4.71-.85-9.19-2.55-13.46-1.7-4.26-4.28-8.02-7.75-11.26-3.47-3.24-7.87-5.81-13.18-7.73-5.31-1.91-11.59-2.87-18.82-2.87h-24.36v67.54h32.11Z"/>
    <path d="M897.5,221.97l-19.21,44.96h-10.04l64.61-152.79h10.92l71.16,152.79h-21.17l-20.95-44.96h-75.31ZM933.96,138.59h-.87l-31.43,73.56h66.57l-34.27-73.56Z"/>
    <path d="M1154.87,221.97l-19.21,44.96h-10.04l64.61-152.79h10.92l71.16,152.79h-21.17l-20.95-44.96h-75.31ZM1191.33,138.59h-.87l-31.43,73.56h66.57l-34.27-73.56Z"/>
    <path d="M542.05,114.14v12h-78.8v54.79h67.67v10.04h-67.67v63.95h78.8v12h-98.66V114.14h98.66Z"/>
    <path d="M266.67,114.14v152.79h-19.86V114.14h19.86Z"/>
    <path d="M1331.98,111.51c9.75,0,17.83,1.35,24.23,4.04,6.4,2.69,11.46,6.04,15.17,10.04,3.71,4,6.33,8.33,7.86,12.99,1.53,4.66,2.29,8.95,2.29,12.88,0,4.37-.72,8.84-2.16,13.43-1.44,4.58-3.74,8.84-6.91,12.77-3.17,3.93-7.25,7.2-12.25,9.82-4.99,2.62-10.98,4.15-17.97,4.58v.87l2.18,1.09c1.74.87,3.24,1.96,4.47,3.27,1.23,1.31,2.84,3.42,4.8,6.33,1.97,2.91,4.61,7.02,7.93,12.33,3.32,5.31,8.02,12.41,14.06,21.28,2.02,3.06,3.97,5.79,5.85,8.19,1.89,2.4,3.84,4.44,5.88,6.11,2.03,1.68,4.22,2.95,6.55,3.82,2.32.88,5.02,1.31,8.08,1.31.72,0,1.45-.03,2.18-.11.73-.07,1.46-.18,2.19-.33v8.07c-2.04,1.17-4.08,1.89-6.11,2.19-2.04.29-4.66.43-7.86.43-4.36,0-8.1-.58-11.22-1.75-3.11-1.17-5.89-2.73-8.34-4.7-2.45-1.96-4.72-4.33-6.81-7.09-2.09-2.77-4.21-5.82-6.37-9.17l-17.31-25.54c-2.63-4.07-4.9-7.49-6.79-10.26-1.9-2.76-3.95-5.02-6.14-6.77-2.19-1.74-4.64-2.98-7.34-3.71-2.7-.73-6.1-1.09-10.19-1.09h-9.64v67.44h-19.86V111.51h49.55ZM1302.29,187.04h22.57c5.84,0,10.99-1.01,15.44-3.06,4.45-2.03,8.22-4.69,11.29-7.97,3.06-3.27,5.36-6.91,6.89-10.91,1.54-4,2.3-7.97,2.3-11.9,0-4.66-.84-8.95-2.52-12.88-1.68-3.93-4.13-7.31-7.34-10.15-3.22-2.84-7.05-5.06-11.51-6.66-4.45-1.6-9.46-2.4-15.01-2.4h-22.13v65.92Z"/>
    <path d="M608.34,111.51c9.75,0,17.83,1.35,24.23,4.04,6.4,2.69,11.46,6.04,15.17,10.04,3.71,4,6.33,8.33,7.86,12.99,1.53,4.66,2.29,8.95,2.29,12.88,0,4.37-.72,8.84-2.16,13.43-1.44,4.58-3.74,8.84-6.91,12.77-3.17,3.93-7.25,7.2-12.25,9.82-4.99,2.62-10.98,4.15-17.97,4.58v.87l2.18,1.09c1.74.87,3.24,1.96,4.47,3.27,1.23,1.31,2.84,3.42,4.8,6.33,1.97,2.91,4.61,7.02,7.93,12.33,3.32,5.31,8.02,12.41,14.06,21.28,2.02,3.06,3.97,5.79,5.85,8.19,1.89,2.4,3.84,4.44,5.88,6.11,2.03,1.68,4.22,2.95,6.55,3.82,2.32.88,5.02,1.31,8.08,1.31.72,0,1.45-.03,2.18-.11.73-.07,1.46-.18,2.19-.33v8.07c-2.04,1.17-4.08,1.89-6.11,2.19-2.04.29-4.66.43-7.86.43-4.36,0-8.1-.58-11.22-1.75-3.11-1.17-5.89-2.73-8.34-4.7-2.45-1.96-4.72-4.33-6.81-7.09-2.09-2.77-4.21-5.82-6.37-9.17l-17.31-25.54c-2.63-4.07-4.9-7.49-6.79-10.26-1.9-2.76-3.95-5.02-6.14-6.77-2.19-1.74-4.64-2.98-7.34-3.71-2.7-.73-6.1-1.09-10.19-1.09h-9.64v67.44h-19.86V111.51h49.55ZM578.66,187.04h22.57c5.84,0,10.99-1.01,15.44-3.06,4.45-2.03,8.22-4.69,11.29-7.97,3.06-3.27,5.36-6.91,6.89-10.91,1.54-4,2.3-7.97,2.3-11.9,0-4.66-.84-8.95-2.52-12.88-1.68-3.93-4.13-7.31-7.34-10.15-3.22-2.84-7.05-5.06-11.51-6.66-4.45-1.6-9.46-2.4-15.01-2.4h-22.13v65.92Z"/>
    <path d="M1028.26,225.67c.14,2.48.73,5.5,1.75,9.06,1.02,3.57,2.98,7.02,5.9,10.37,2.91,3.35,7.13,6.22,12.66,8.62,5.53,2.4,12.88,3.6,22.04,3.6,11.49,0,20.7-2.18,27.62-6.55,6.91-4.37,10.36-11.27,10.36-20.74,0-7.56-2.18-13.6-6.55-18.12-4.37-4.51-9.86-8.33-16.48-11.46-6.62-3.12-13.79-5.93-21.5-8.4-7.71-2.47-14.88-5.46-21.5-8.95-6.62-3.49-12.11-7.86-16.48-13.1-4.36-5.24-6.55-12.15-6.55-20.74,0-6.55,1.35-12.36,4.04-17.46,2.69-5.09,6.34-9.31,10.93-12.66,4.59-3.34,9.91-5.89,15.96-7.64,6.05-1.74,12.42-2.62,19.13-2.62s12.57.76,18.46,2.3c5.9,1.52,11.18,3.78,15.85,6.76,4.66,2.98,8.53,6.63,11.59,10.91,3.06,4.29,5.03,9.13,5.91,14.52h-14.87c-1.17-8.59-5.07-14.88-11.7-18.88-6.63-4-14.69-6-24.16-6-5.68,0-10.71.69-15.09,2.07-4.37,1.38-8.05,3.2-11.04,5.46-2.98,2.26-5.25,4.91-6.77,7.97-1.53,3.06-2.3,6.33-2.3,9.82,0,6.26,2.26,11.28,6.78,15.06,4.52,3.79,10.18,7.14,16.96,10.04,6.79,2.91,14.15,5.68,22.1,8.29,7.94,2.62,15.31,5.86,22.1,9.71,6.79,3.86,12.43,8.66,16.96,14.41,4.52,5.75,6.78,13.13,6.78,22.15,0,6.55-1.31,12.52-3.94,17.9-2.62,5.39-6.34,9.97-11.15,13.75-4.82,3.79-10.61,6.69-17.39,8.73-6.78,2.04-14.4,3.06-22.85,3.06s-15.96-.98-22.96-2.95c-7-1.97-13.09-4.73-18.26-8.29-5.18-3.57-9.26-7.89-12.25-12.99-2.99-5.09-4.63-10.77-4.92-17.03h14.84Z"/>
    <path d="M311.18,114.14l52.39,125.73h.87l50.86-125.73h11.35l-61.99,152.79h-13.09l-63.95-152.79h23.57Z"/>
    <path d="M222.15,114.14l-96.92,140.79h100.63v12H93.59l97.79-140.79h-92.33v-12h123.11Z"/>
  </g>
  <g>
    <path d="M555.93,419.28v-74.54h10.1v74.54h-10.1ZM602.01,419.28l-37.59-38.87,36.83-35.66h13.1l-39.74,38.24v-5.58l40.82,41.88h-13.43Z"/>
    <path d="M654.31,420.35c-5.3,0-10.23-.98-14.82-2.96-4.58-1.96-8.6-4.72-12.03-8.26-3.44-3.55-6.11-7.65-8-12.3-1.89-4.66-2.85-9.63-2.85-14.93s.95-10.36,2.85-14.97c1.89-4.62,4.54-8.69,7.94-12.2,3.4-3.5,7.38-6.23,11.92-8.16,4.55-1.92,9.47-2.9,14.77-2.9s10.22.97,14.78,2.9c4.54,1.93,8.53,4.66,11.97,8.16,3.44,3.51,6.12,7.6,8.05,12.25,1.93,4.65,2.91,9.67,2.91,15.03s-.97,10.27-2.91,14.93c-1.93,4.66-4.6,8.74-8,12.25-3.4,3.51-7.37,6.25-11.92,8.21-4.54,1.97-9.43,2.96-14.66,2.96ZM654.09,410.69c5.38,0,10.09-1.24,14.13-3.71,4.04-2.47,7.25-5.87,9.61-10.2,2.36-4.33,3.54-9.29,3.54-14.88,0-4.15-.68-7.96-2.04-11.43-1.36-3.47-3.25-6.5-5.69-9.07-2.43-2.58-5.3-4.56-8.59-5.96-3.29-1.4-6.94-2.09-10.96-2.09-5.3,0-9.97,1.22-14.01,3.65-4.05,2.43-7.23,5.8-9.56,10.1-2.32,4.29-3.49,9.23-3.49,14.82,0,4.16.66,8,1.99,11.55,1.32,3.54,3.18,6.58,5.58,9.12,2.4,2.54,5.27,4.53,8.59,5.96,3.33,1.44,6.96,2.15,10.9,2.15Z"/>
    <path d="M705.64,419.28v-74.54h7.09l3,11.71v62.82h-10.1ZM757.19,419.28l-45.75-61.11,1.29-13.43,45.86,61-1.4,13.54ZM757.19,419.28l-3-11.06v-63.48h10.1v74.54h-7.09Z"/>
    <path d="M776.42,419.28l30.49-74.54h7.31l30.39,74.54h-10.95l-25.02-63.04h3.76l-25.24,63.04h-10.74ZM790.92,402.42v-8.81h39.19v8.81h-39.19Z"/>
    <path d="M884.77,420.35c-5.23,0-10.11-.98-14.66-2.96-4.54-1.96-8.52-4.7-11.92-8.21-3.4-3.51-6.07-7.59-8-12.25-1.93-4.65-2.9-9.66-2.9-15.03s.96-10.36,2.9-14.97c1.93-4.62,4.62-8.69,8.06-12.2,3.43-3.5,7.46-6.23,12.08-8.16,4.62-1.92,9.65-2.9,15.08-2.9,5.95,0,11.42,1.15,16.43,3.44,5.02,2.29,9.2,5.58,12.56,9.88l-6.98,6.98c-2.36-3.44-5.47-6.07-9.34-7.89-3.87-1.82-8.09-2.74-12.67-2.74-5.43,0-10.25,1.22-14.44,3.65-4.18,2.43-7.45,5.8-9.78,10.1-2.32,4.29-3.49,9.23-3.49,14.82s1.19,10.63,3.55,14.93c2.36,4.29,5.54,7.66,9.56,10.1,4.01,2.43,8.59,3.65,13.74,3.65s9.75-1,13.59-3c3.83-2,6.78-4.96,8.86-8.87,2.07-3.9,3.11-8.68,3.11-14.34l6.13,4.4h-32.22v-9.23h36.51v1.51c0,8.66-1.53,15.91-4.57,21.75-3.04,5.83-7.26,10.21-12.66,13.15-5.41,2.94-11.58,4.4-18.53,4.4ZM903.25,320.37c0,3.44-.78,6.54-2.36,9.29s-3.73,4.94-6.45,6.55c-2.72,1.62-5.83,2.42-9.34,2.42s-6.76-.8-9.56-2.42c-2.79-1.61-4.99-3.79-6.6-6.55-1.61-2.76-2.42-5.85-2.42-9.29h8.81c0,2.87.9,5.23,2.69,7.09,1.79,1.86,4.16,2.79,7.09,2.79,1.79,0,3.4-.43,4.83-1.29,1.44-.85,2.56-2.03,3.38-3.54.82-1.51,1.24-3.18,1.24-5.05h8.7Z"/>
    <path d="M934.07,419.28v-74.54h10.1v74.54h-10.1Z"/>
  </g>
  <circle cx="256.74" cy="89.69" r="10.04"/>
  <path d="M1073.54,258.93,1074.42,261.13c-.98,2.93-1.47,5.18-1.47,6.75,0,1.37.42,2.42,1.25,3.15.83.73,2.57,1.88,5.21,3.45,2.44,1.37,4.38,2.93,5.79,4.69,1.42,1.76,2.13,3.96,2.13,6.6,0,3.62-1.3,6.87-3.89,9.75-2.59,2.88-6.38,4.33-11.37,4.33-2.74,0-4.99-.49-6.75-1.47-1.76-.98-2.64-2.35-2.64-4.11,0-1.27.44-2.32,1.32-3.15.88-.83,1.91-1.25,3.08-1.25,1.07,0,1.91.27,2.49.81.59.54,1.17,1.34,1.76,2.42.68,1.27,1.39,2.22,2.13,2.86.73.64,1.83.95,3.3.95,3.32,0,4.99-1.86,4.99-5.57,0-2.54-.9-4.82-2.71-6.82-1.81-2-5.11-4.28-9.9-6.82-1.37-.69-2.05-1.32-2.05-1.91,0-.39.24-1.22.73-2.49,1.27-3.03,2.79-7.04,4.55-12.03"/>
</svg>